# xmcd CD database file
#
# Track frame offsets:
#	150
#	13332
#	26601
#	39686
#	51153
#	67618
#	81387
#	95440
#	112515
#	127522
#	139894
#	153486
#	171384
#	187755
#
# Disc length: 2655 seconds
#
# Revision: 0
# Processed by: cddbd v1.4PL0 Copyright (c) Steve Scherf et al.
# Submitted via: CDex 1.50
#
DISCID=aa0a5d0e
DTITLE=Luigi and Luano - Mulher Sensual
DYEAR=2002
DGENRE=Country
TTITLE0=Mulher Sensual
TTITLE1=Grudado Feito Cacho
TTITLE2=Libera Geral
TTITLE3=Eu Levo as Duas
TTITLE4=Não Deu em Nada
TTITLE5=O Amor é um Perigo
TTITLE6=Dois Amores
TTITLE7=Espelho da Saudade
TTITLE8=Eu Sou Culpado
TTITLE9=A Saudade é Bandida
TTITLE10=Bailão Rodeio e Cerveja
TTITLE11=Se eu Soubesse
TTITLE12=Missão Cumprida
TTITLE13=Sexta Especial
EXTD=YEAR: 2002
EXTT0=
EXTT1=
EXTT2=
EXTT3=
EXTT4=
EXTT5=
EXTT6=
EXTT7=
EXTT8=
EXTT9=
EXTT10=
EXTT11=
EXTT12=
EXTT13=
PLAYORDER=
